<svg width="64" height="64" viewBox="0 0 64 64" fill="none" xmlns="http://www.w3.org/2000/svg">
  <rect width="64" height="64" rx="18" fill="#081722"/>
  <path d="M32 10L48 16V28C48 39.6 41.2 49.6 32 54C22.8 49.6 16 39.6 16 28V16L32 10Z" fill="#0F62FE"/>
  <path d="M32 18L41 21.4V28.2C41 35.6 37 42.2 32 45C27 42.2 23 35.6 23 28.2V21.4L32 18Z" fill="#C8D8FF"/>
  <path d="M32 24C29.8 24 28 25.8 28 28C28 29.6 28.9 31 30.3 31.7V36H33.7V31.7C35.1 31 36 29.6 36 28C36 25.8 34.2 24 32 24Z" fill="#081722"/>
</svg>
